<svg xmlns="http://www.w3.org/2000/svg" viewBox="0 0 24 24" fill="currentColor">
  <path d="M21,4h-3c-0.5522461,0-1,0.4477539-1,1v2H7V5c0-0.5522461-0.4477539-1-1-1H3C2.4477539,4,2,4.4477539,2,5v6   c0,0.5522461,0.4477539,1,1,1h3c0.5522461,0,1-0.4477539,1-1V9h1v10c0,0.5522461,0.4477539,1,1,1s1-0.4477539,1-1v-3h4v3   c0,0.5522461,0.4477539,1,1,1s1-0.4477539,1-1V9h1v2c0,0.5522461,0.4477539,1,1,1h3c0.5522461,0,1-0.4477539,1-1V5   C22,4.4477539,21.5522461,4,21,4z M5,10H4V6h1V10z M14,14h-4V9h4V14z M20,10h-1V6h1V10z"/>
</svg>
